<svg xmlns="http://www.w3.org/2000/svg" xmlns:xlink="http://www.w3.org/1999/xlink" width="0" height="0" class="hidden">
    <!-- header -->
    <symbol viewBox="0 0 22 22" fill="currentColor" id="user" stroke="none">
        <path fill-rule="evenodd" clip-rule="evenodd"
            d="M10.9996 2.29167C8.59484 2.29167 6.64542 4.24109 6.64542 6.64583C6.64542 9.05057 8.59484 11 10.9996 11C13.4043 11 15.3537 9.05057 15.3537 6.64583C15.3537 4.24109 13.4043 2.29167 10.9996 2.29167ZM8.02042 6.64583C8.02042 5.00048 9.35424 3.66667 10.9996 3.66667C12.6449 3.66667 13.9787 5.00048 13.9787 6.64583C13.9787 8.29118 12.6449 9.625 10.9996 9.625C9.35424 9.625 8.02042 8.29118 8.02042 6.64583Z" />
        <path
            d="M14.19 12.2605C14.3949 12.2605 14.5891 12.3519 14.7197 12.5098L19.8578 18.7208C19.9567 18.8403 19.8717 19.0209 19.7166 19.0209H18.753C18.4798 19.0209 18.2208 18.8991 18.0467 18.6886L13.8664 13.6355H8.13195L3.9517 18.6886C3.77756 18.8991 3.5186 19.0209 3.2454 19.0209H2.28183C2.1267 19.0209 2.04168 18.8403 2.14057 18.7208L7.27871 12.5098C7.40932 12.3519 7.60354 12.2605 7.80844 12.2605H14.19Z" />
    </symbol>
    <symbol viewBox="0 0 22 22" fill="currentColor" id="heart-list" stroke="none">
        <path
            d="M11.6543 4.39206C13.5885 2.63429 16.5856 2.69472 18.4482 4.56784C19.4688 5.59413 19.9491 6.95482 19.8887 8.29538C19.8774 8.54561 19.6626 8.73081 19.4121 8.73092H18.6982C18.5732 8.73092 18.4787 8.61775 18.4932 8.49362C18.6172 7.44248 18.2772 6.34655 17.4727 5.53757C16.0918 4.14903 13.8462 4.14303 12.46 5.52194L12.4424 5.53952L12.4404 5.54245L10.9736 7.0151L9.50781 5.53659C8.12689 4.14884 5.88198 4.14348 4.49609 5.52389V5.52487L4.48242 5.53757C3.08973 6.93647 3.08856 9.20016 4.48242 10.602L4.52344 10.643L10.6709 17.9663C10.8095 18.1314 10.8857 18.3406 10.8857 18.5561V19.6518C10.8857 19.7589 10.793 19.8443 10.6895 19.8169C10.5027 19.7674 10.326 19.6695 10.1807 19.5219L3.50781 11.5717C1.5807 9.63389 1.58076 6.50359 3.50781 4.56784L3.52539 4.55026C5.39341 2.6888 8.38401 2.64209 10.3105 4.40182C10.3692 4.45543 10.4267 4.51088 10.4834 4.56784L10.9756 5.06393L11.4678 4.56979L11.4893 4.54831C11.5432 4.49458 11.5985 4.44276 11.6543 4.39206ZM19.667 18.1274C19.943 18.1276 20.167 18.3514 20.167 18.6274V19.0024C20.1668 19.2783 19.9429 19.5022 19.667 19.5024H12.417C12.141 19.5024 11.9172 19.2784 11.917 19.0024V18.6274C11.917 18.3513 12.1408 18.1274 12.417 18.1274H19.667ZM19.667 14.4604C19.943 14.4606 20.167 14.6844 20.167 14.9604V15.3354C20.167 15.6115 19.943 15.8352 19.667 15.8354H15.167C14.8908 15.8354 14.667 15.6116 14.667 15.3354V14.9604C14.667 14.6843 14.8908 14.4604 15.167 14.4604H19.667ZM19.667 10.7934C19.9429 10.7936 20.1668 11.0175 20.167 11.2934V11.6684C20.167 11.9445 19.943 12.1682 19.667 12.1684H17C16.7239 12.1684 16.5 11.9446 16.5 11.6684V11.2934C16.5002 11.0174 16.724 10.7934 17 10.7934H19.667Z" />
    </symbol>
    <symbol viewBox="0 0 20 20" fill="currentColor" id="about-us" stroke="none">
        <path
            d="M2.5 10.5702C2.5 10.3765 2.56746 10.1889 2.69078 10.0396L9.35542 1.96936C9.68872 1.56577 10.3072 1.56577 10.6405 1.96936L17.3092 10.0445C17.4325 10.1938 17.5 10.3815 17.5 10.5751V17.079C17.5 17.5392 17.1269 17.9123 16.6667 17.9123H3.33333C2.8731 17.9123 2.5 17.5392 2.5 17.079V10.5702ZM16.25 10.7249L9.99796 3.15435L3.75 10.72V16.6623H16.25V10.7249Z" />
        <path
            d="M12.8699 8.90288C13.0827 9.0789 13.1125 9.39408 12.9364 9.60685L8.47448 15.0004C8.29846 15.2132 7.98328 15.243 7.77051 15.067L7.38526 14.7483C7.17249 14.5723 7.14269 14.2571 7.31871 14.0443L11.7807 8.65072C11.9567 8.43795 12.2719 8.40815 12.4846 8.58417L12.8699 8.90288Z" />
    </symbol>
    <symbol viewBox="0 0 20 20" fill="currentColor" id="scan-search" stroke="none">
        <path fill-rule="evenodd" clip-rule="evenodd"
            d="M16.6667 3.125H12.5V1.875H16.6667C17.4721 1.875 18.125 2.52792 18.125 3.33333V7.5H16.875V3.33333C16.875 3.21827 16.7817 3.125 16.6667 3.125Z" />
        <path fill-rule="evenodd" clip-rule="evenodd"
            d="M16.6667 16.875H12.5V18.125H16.6667C17.4721 18.125 18.125 17.4721 18.125 16.6667V12.5H16.875V16.6667C16.875 16.7817 16.7817 16.875 16.6667 16.875Z" />
        <path fill-rule="evenodd" clip-rule="evenodd"
            d="M1.875 3.33336C1.875 2.52795 2.52792 1.87503 3.33333 1.87503H7.5V3.12503H3.33333C3.21827 3.12503 3.125 3.2183 3.125 3.33336V7.50003H1.875V3.33336Z" />
        <path fill-rule="evenodd" clip-rule="evenodd"
            d="M3.33333 16.875H7.5V18.125H3.33333C2.52792 18.125 1.875 17.4721 1.875 16.6667V12.5H3.125V16.6667C3.125 16.7817 3.21827 16.875 3.33333 16.875Z" />
        <path fill-rule="evenodd" clip-rule="evenodd"
            d="M9.16667 12.0833C10.7775 12.0833 12.0833 10.7775 12.0833 9.16667C12.0833 7.55584 10.7775 6.25 9.16667 6.25C7.55584 6.25 6.25 7.55584 6.25 9.16667C6.25 10.7775 7.55584 12.0833 9.16667 12.0833ZM9.16667 13.3333C11.4679 13.3333 13.3333 11.4679 13.3333 9.16667C13.3333 6.86548 11.4679 5 9.16667 5C6.86548 5 5 6.86548 5 9.16667C5 11.4679 6.86548 13.3333 9.16667 13.3333Z" />
        <path
            d="M14.0282 14.9121C14.0844 14.9684 14.1607 15 14.2403 15H15.1595C15.4268 15 15.5607 14.6769 15.3717 14.4879L12.5252 11.6414L11.6414 12.5253L14.0282 14.9121Z" />
    </symbol>

    <symbol viewBox="0 0 22 22" fill="currentColor" id="search" stroke="none">
        <path
            d="M9.51107 1.8335C5.27113 1.8335 1.83398 5.27064 1.83398 9.51058C1.83398 13.7505 5.27113 17.1877 9.51107 17.1877C11.1935 17.1877 12.7495 16.6465 14.0145 15.7287L16.9038 19.2212C17.078 19.4317 17.3369 19.5536 17.6101 19.5536H18.5737C18.7288 19.5536 18.8138 19.3729 18.715 19.2534L15.0514 14.8249C16.3748 13.4456 17.1882 11.5731 17.1882 9.51058C17.1882 5.27064 13.751 1.8335 9.51107 1.8335ZM3.20898 9.51058C3.20898 6.03004 6.03052 3.2085 9.51107 3.2085C12.9916 3.2085 15.8132 6.03004 15.8132 9.51058C15.8132 12.9911 12.9916 15.8127 9.51107 15.8127C6.03052 15.8127 3.20898 12.9911 3.20898 9.51058Z" />
    </symbol>
    <symbol viewBox="0 0 24 24" fill="none" stroke="currentColor" id="x" stroke-width="2" stroke-linecap="round"
        stroke-linejoin="round">
        <path d="M18 6 6 18" />
        <path d="m6 6 12 12" />
    </symbol>
    <symbol viewBox="0 0 16 17" fill="currentColor" stroke="none" id="trash-2">
        <path
            d="M2.6665 5.16683H1.99984C1.81574 5.16683 1.6665 5.01759 1.6665 4.8335V4.16683C1.6665 3.98273 1.81574 3.8335 1.99984 3.8335H4.99984V2.50016C4.99984 2.13197 5.29831 1.8335 5.6665 1.8335H10.3332C10.7014 1.8335 10.9998 2.13197 10.9998 2.50016V3.8335H13.9998C14.1839 3.8335 14.3332 3.98273 14.3332 4.16683V4.8335C14.3332 5.01759 14.1839 5.16683 13.9998 5.16683H13.3332V14.8335C13.3332 15.0176 13.1839 15.1668 12.9998 15.1668H2.99984C2.81574 15.1668 2.6665 15.0176 2.6665 14.8335V5.16683ZM3.99984 5.16683V13.8335H11.9998V5.16683H3.99984ZM6.33317 3.8335H9.6665V3.16683H6.33317V3.8335ZM5.99984 6.8335C5.99984 6.6494 6.14908 6.50016 6.33317 6.50016H6.99984C7.18393 6.50016 7.33317 6.6494 7.33317 6.8335V12.1668C7.33317 12.3509 7.18393 12.5002 6.99984 12.5002H6.33317C6.14908 12.5002 5.99984 12.3509 5.99984 12.1668V6.8335ZM8.6665 6.8335C8.6665 6.6494 8.81574 6.50016 8.99984 6.50016H9.6665C9.8506 6.50016 9.99984 6.6494 9.99984 6.8335V12.1668C9.99984 12.3509 9.8506 12.5002 9.6665 12.5002H8.99984C8.81574 12.5002 8.6665 12.3509 8.6665 12.1668V6.8335Z" />
    </symbol>
    <symbol viewBox="0 0 16 17" fill="currentColor" stroke="none" id="rotate-cw">
        <path
            d="M13.4129 10.1784C13.2369 10.1233 13.0506 10.2222 12.9851 10.3946C12.5936 11.4248 11.8912 12.3113 10.9715 12.9285C9.95903 13.6079 8.74436 13.9199 7.52981 13.8125C6.31527 13.7051 5.1742 13.1848 4.2967 12.3382C3.4192 11.4917 2.85825 10.37 2.70731 9.16012C2.55638 7.95022 2.82456 6.72513 3.46719 5.68894C4.10982 4.65276 5.08809 3.86805 6.23902 3.46555C7.38995 3.06304 8.64404 3.06705 9.79238 3.4769C10.9407 3.88676 11.9139 4.6777 12.5499 5.71797L11.8047 5.51782C11.6268 5.47005 11.4439 5.57557 11.3963 5.75346L11.2236 6.39798C11.1759 6.57581 11.2814 6.7586 11.4593 6.80624L13.7133 7.41012C14.069 7.5054 14.4345 7.29433 14.5298 6.93868L15.1337 4.68456C15.1813 4.50676 15.0758 4.324 14.898 4.27633L14.2539 4.10362C14.0761 4.05595 13.8933 4.16142 13.8456 4.33921L13.6699 4.99397C12.8692 3.69902 11.6494 2.71715 10.2132 2.21162C8.7771 1.70609 7.21119 1.70737 5.77587 2.21524C4.34056 2.72311 3.12232 3.70697 2.32372 5.00323C1.52512 6.29949 1.19428 7.83006 1.3862 9.34043C1.57812 10.8508 2.28123 12.25 3.37865 13.3053C4.47606 14.3607 5.90164 15.0086 7.41836 15.1413C8.93507 15.2741 10.4515 14.8837 11.7156 14.0351C12.8874 13.2484 13.7769 12.1118 14.2601 10.7918C14.3233 10.6191 14.2246 10.4322 14.0491 10.3774L13.4129 10.1784Z" />
    </symbol>

    <symbol viewBox="0 0 16 16" fill="currentColor" stroke="none" id="move-up-left">
        <path
            d="M3.397 4.01927C3.23245 4.18381 3.13045 4.40059 3.10855 4.63226L2.64384 9.54831C2.61579 9.84503 2.72155 10.1388 2.93229 10.3495L3.67558 11.0928C3.79525 11.2125 4.00019 11.1387 4.01611 10.9702L4.52575 5.57885L11.932 12.9851C12.1273 13.1804 12.4439 13.1804 12.6391 12.9851L12.9927 12.6316C13.188 12.4363 13.188 12.1197 12.9927 11.9245L5.59391 4.52568L10.9706 4.01743C11.1391 4.0015 11.2129 3.79656 11.0932 3.67689L10.3499 2.9336C10.1392 2.72286 9.84542 2.6171 9.54871 2.64515L4.63077 3.11004C4.3991 3.13194 4.18232 3.23395 4.01778 3.39849L3.397 4.01927Z" />
    </symbol>
    <symbol viewBox="0 0 16 16" stroke="none" fill="currentColor" id="chevron-down" fill-rule="evenodd"
        clip-rule="evenodd">
        <path fill-rule="evenodd" clip-rule="evenodd"
            d="M2.57934 11.5376C2.44917 11.6678 2.23807 11.6678 2.10786 11.5376L1.63654 11.0663C1.50636 10.9361 1.50637 10.7251 1.63656 10.5949L7.52997 4.7023C7.79034 4.44197 8.21245 4.442 8.47278 4.70237L14.3645 10.5949C14.4946 10.7251 14.4946 10.9361 14.3645 11.0663L13.8932 11.5376C13.7629 11.6678 13.5518 11.6678 13.4216 11.5375L8.00141 6.11231L2.57934 11.5376Z" />
    </symbol>

    <symbol viewBox="0 0 22 22" stroke="none" fill="currentColor" id="chevron-right">
        <path
            d="M11.6252 2.75C11.8984 2.75 12.1574 2.87186 12.3315 3.08236L18.1222 10.082C18.2581 10.2464 18.3325 10.453 18.3325 10.6663V11.3324C18.3325 11.5457 18.2581 11.7523 18.1222 11.9167L12.3301 18.918C12.156 19.1285 11.897 19.2504 11.6238 19.2504H10.6602C10.5051 19.2504 10.4201 19.0697 10.519 18.9502L17.0965 10.9993L10.5204 3.05019C10.4215 2.93066 10.5065 2.75 10.6616 2.75H11.6252Z" />
    </symbol>


    <symbol viewBox="0 0 21 20" stroke="none" fill="currentColor" id="vk">
        <path
            d="M11.1416 14.409C6.58329 14.409 3.98333 11.284 3.875 6.08398H6.15833C6.23333 9.90065 7.91663 11.5173 9.24996 11.8507V6.08398H11.4V9.37565C12.7167 9.23398 14.0999 7.73398 14.5665 6.08398H16.7166C16.3582 8.11732 14.8582 9.61732 13.7916 10.234C14.8582 10.734 16.5667 12.0423 17.2167 14.409H14.8499C14.3416 12.8257 13.075 11.6007 11.4 11.434V14.409H11.1416Z" />
    </symbol>
    <symbol viewBox="0 0 21 20" stroke="none" fill="currentColor" id="tg" fill-rule="evenodd" clip-rule="evenodd">
        <path
            d="M5.02635 9.89397C7.94156 8.62386 9.88548 7.78653 10.8581 7.38197C13.6352 6.22688 14.2123 6.02623 14.5884 6.0196C14.6711 6.01814 14.8561 6.03865 14.9759 6.13587C15.0771 6.21796 15.1049 6.32885 15.1182 6.40668C15.1316 6.48451 15.1481 6.66181 15.135 6.80034C14.9845 8.38158 14.3333 12.2188 14.002 13.9898C13.8618 14.7392 13.5858 14.9905 13.3186 15.0151C12.7379 15.0685 12.2969 14.6313 11.7345 14.2626C10.8543 13.6856 10.3571 13.3265 9.50279 12.7635C8.51547 12.1129 9.15551 11.7553 9.71818 11.1709C9.86543 11.018 12.4241 8.69066 12.4736 8.47953C12.4798 8.45313 12.4856 8.35471 12.4271 8.30274C12.3686 8.25077 12.2823 8.26854 12.22 8.28267C12.1318 8.30271 10.7257 9.23203 8.00198 11.0706C7.60288 11.3447 7.2414 11.4782 6.91752 11.4712C6.56046 11.4635 5.87364 11.2693 5.36306 11.1034C4.73681 10.8998 4.23907 10.7922 4.28242 10.4465C4.30499 10.2664 4.55297 10.0822 5.02635 9.89397Z" />
    </symbol>
    <symbol viewBox="0 0 21 20" stroke="none" fill="currentColor" id="dzen">
        <path
            d="M18.0581 9.7909C18.0581 9.71519 17.9966 9.65249 17.9208 9.64894C15.2033 9.546 13.5495 9.19938 12.3924 8.04234C11.233 6.88294 10.8875 5.22783 10.7846 2.50442C10.7823 2.4287 10.7195 2.36719 10.6426 2.36719H10.3256C10.2499 2.36719 10.1872 2.4287 10.1836 2.50442C10.0807 5.22664 9.73523 6.88294 8.57584 8.04234C7.41762 9.20056 5.76488 9.546 3.04739 9.64894C2.97167 9.65131 2.91016 9.714 2.91016 9.7909V10.108C2.91016 10.1837 2.97167 10.2464 3.04739 10.2499C5.76488 10.3529 7.4188 10.6995 8.57584 11.8565C9.73287 13.0136 10.0783 14.664 10.1824 17.3767C10.1848 17.4524 10.2475 17.5139 10.3244 17.5139H10.6426C10.7184 17.5139 10.7811 17.4524 10.7846 17.3767C10.8887 14.664 11.2342 13.0136 12.3913 11.8565C13.5495 10.6983 15.2021 10.3529 17.9197 10.2499C17.9954 10.2476 18.0569 10.1849 18.0569 10.108V9.7909H18.0581Z" />
    </symbol>

    <symbol viewBox="0 0 24 24" fill="none" stroke="currentColor" id="ellipsis" stroke-width="2" stroke-linecap="round"
        stroke-linejoin="round">
        <circle cx="12" cy="12" r="1" />
        <circle cx="19" cy="12" r="1" />
        <circle cx="5" cy="12" r="1" />
    </symbol>

    <symbol viewBox="64 64 896 896" fill="currentColor" aria-hidden="true" id="chevron-right-pagination">
        <path
            d="M724 218.3V141c0-6.7-7.7-10.4-12.9-6.3L260.3 486.8a31.86 31.86 0 000 50.3l450.8 352.1c5.3 4.1 12.9.4 12.9-6.3v-77.3c0-4.9-2.3-9.6-6.1-12.6l-360-281 360-281.1c3.8-3 6.1-7.7 6.1-12.6z">
        </path>
    </symbol>
    <symbol viewBox="64 64 896 896" focusable="false" fill="currentColor" aria-hidden="true" id="chevrons-right">
        <path
            d="M533.2 492.3L277.9 166.1c-3-3.9-7.7-6.1-12.6-6.1H188c-6.7 0-10.4 7.7-6.3 12.9L447.1 512 181.7 851.1A7.98 7.98 0 00188 864h77.3c4.9 0 9.6-2.3 12.6-6.1l255.3-326.1c9.1-11.7 9.1-27.9 0-39.5zm304 0L581.9 166.1c-3-3.9-7.7-6.1-12.6-6.1H492c-6.7 0-10.4 7.7-6.3 12.9L751.1 512 485.7 851.1A7.98 7.98 0 00492 864h77.3c4.9 0 9.6-2.3 12.6-6.1l255.3-326.1c9.1-11.7 9.1-27.9 0-39.5z" />
    </symbol>
    <symbol viewBox="0 0 24 24" fill="none" stroke="currentColor" id="check" stroke-linecap="round"
        stroke-linejoin="round">
        <path d="M20 6 9 17l-5-5" />
    </symbol>
    <symbol viewBox="0 0 16 16" fill="currentColor" stroke="none" id="plus">
        <path
            d="M8.66671 7.33334V1.66668C8.66671 1.48258 8.51747 1.33334 8.33337 1.33334L7.66671 1.33334C7.48261 1.33334 7.33337 1.48258 7.33337 1.66668V7.33334H1.66671C1.48261 7.33334 1.33337 7.48258 1.33337 7.66668V8.33334C1.33337 8.51744 1.48261 8.66668 1.66671 8.66668H7.33337V14.3333C7.33337 14.5174 7.48261 14.6667 7.66671 14.6667H8.33337C8.51747 14.6667 8.66671 14.5174 8.66671 14.3333V8.66668H14.3334C14.5175 8.66668 14.6667 8.51744 14.6667 8.33334V7.66668C14.6667 7.48258 14.5175 7.33334 14.3334 7.33334H8.66671Z" />
    </symbol>

    <symbol viewBox="0 0 24 24" fill="none" id="chevron-right-gallery">
        <rect x="0.333333" y="0.333333" width="23.3333" height="23.3333" rx="5" fill="white" />
        <rect x="0.333333" y="0.333333" width="23.3333" height="23.3333" rx="5" stroke="#C7C7D7"
            stroke-width="0.666667" />
        <path
            d="M11.122 6C11.3207 6 11.509 6.08862 11.6357 6.24172L15.8471 11.3324C15.9459 11.4519 16 11.6022 16 11.7573V12.2417C16 12.3969 15.9459 12.5471 15.8471 12.6667L11.6347 17.7586C11.508 17.9117 11.3197 18.0003 11.121 18.0003H10.4202C10.3074 18.0003 10.2456 17.8689 10.3175 17.782L15.1011 11.9995L10.3185 6.21832C10.2466 6.13139 10.3084 6 10.4212 6H11.122Z"
            fill="#14151A" />
    </symbol>

    <symbol viewBox="0 0 24 24" fill="none" stroke="currentColor" stroke-width="2" stroke-linecap="round"
        id="circle-question-mark" stroke-linejoin="round">
        <circle cx="12" cy="12" r="10" />
        <path d="M9.09 9a3 3 0 0 1 5.83 1c0 2-3 3-3 3" />
        <path d="M12 17h.01" />
    </symbol>

    <symbol viewBox="0 0 1 10" fill="none" id="separator">
        <path opacity="0.5" d="M0.5 0V10" stroke="#002F35" stroke-width="0.5" />
    </symbol>
    <symbol viewBox="0 0 24 24" fill="currentColor" stroke="none" id="star" stroke-width="2" stroke-linecap="round"
        stroke-linejoin="round">
        <path
            d="M11.525 2.295a.53.53 0 0 1 .95 0l2.31 4.679a2.123 2.123 0 0 0 1.595 1.16l5.166.756a.53.53 0 0 1 .294.904l-3.736 3.638a2.123 2.123 0 0 0-.611 1.878l.882 5.14a.53.53 0 0 1-.771.56l-4.618-2.428a2.122 2.122 0 0 0-1.973 0L6.396 21.01a.53.53 0 0 1-.77-.56l.881-5.139a2.122 2.122 0 0 0-.611-1.879L2.16 9.795a.53.53 0 0 1 .294-.906l5.165-.755a2.122 2.122 0 0 0 1.597-1.16z" />
    </symbol>
    <symbol id="pen-line" viewBox="0 0 14 14" fill="currentColor" stroke="none" fill-rule="evenodd" clip-rule="evenodd">
        <path
            d="M12.25 12.5708C12.25 12.6352 12.1978 12.6875 12.1333 12.6875H1.86667C1.80223 12.6875 1.75 12.6352 1.75 12.5708V11.9291C1.75 11.8647 1.80223 11.8125 1.86667 11.8125H12.1333C12.1978 11.8125 12.25 11.8647 12.25 11.9291V12.5708Z" />
        <path
            d="M8.31994 1.58347C8.5253 1.33523 8.89301 1.30047 9.14124 1.50583L11.6133 3.5509C11.8615 3.75626 11.8963 4.12396 11.6909 4.3722L6.5864 10.5425C6.47558 10.6765 6.31079 10.754 6.13693 10.754L3.83509 10.754C3.53237 10.754 3.27995 10.5225 3.25392 10.2208L3.07802 8.18265C3.06486 8.03015 3.11216 7.8786 3.20972 7.76066L8.31994 1.58347ZM8.80823 2.36595L3.96004 8.22639L4.10267 9.87903L5.99969 9.87902L10.8308 4.03918L8.80823 2.36595Z" />
    </symbol>
</svg>